<?xml version="1.0" encoding="UTF-8" standalone="no"?>
<!DOCTYPE svg PUBLIC "-//W3C//DTD SVG 1.1//EN"
 "http://www.w3.org/Graphics/SVG/1.1/DTD/svg11.dtd">
<!-- Generated by graphviz version 2.43.0 (0)
 -->
<!-- Title: permutations_backtrack Pages: 1 -->
<svg width="239pt" height="45pt"
 viewBox="0.00 0.00 239.00 45.00" xmlns="http://www.w3.org/2000/svg" xmlns:xlink="http://www.w3.org/1999/xlink">
<g id="graph0" class="graph" transform="scale(1 1) rotate(0) translate(4 41)">
<title>permutations_backtrack</title>
<!-- Node1 -->
<g id="Node000001" class="node">
<title>Node1</title>
<g id="a_Node000001"><a xlink:title=" ">
<polygon fill="#999999" stroke="#666666" points="135,-19 0,-19 0,0 135,0 135,-19"/>
<text text-anchor="middle" x="67.5" y="-7" font-family="Helvetica,sans-Serif" font-size="10.00">permutations_backtrack</text>
</a>
</g>
</g>
<!-- Node2 -->
<g id="Node000002" class="node">
<title>Node2</title>
<g id="a_Node000002"><a xlink:href="backtrack_8c.html#a5b11c1643df2e7c0ab9a641d29e76830" target="_top" xlink:title=" ">
<polygon fill="white" stroke="#666666" points="231,-19 171,-19 171,0 231,0 231,-19"/>
<text text-anchor="middle" x="201" y="-7" font-family="Helvetica,sans-Serif" font-size="10.00">generate</text>
</a>
</g>
</g>
<!-- Node1&#45;&gt;Node2 -->
<g id="edge1_Node000001_Node000002" class="edge">
<title>Node1&#45;&gt;Node2</title>
<g id="a_edge1_Node000001_Node000002"><a xlink:title=" ">
<path fill="none" stroke="#63b8ff" d="M135.02,-9.5C143.79,-9.5 152.54,-9.5 160.65,-9.5"/>
<polygon fill="#63b8ff" stroke="#63b8ff" points="160.89,-13 170.89,-9.5 160.89,-6 160.89,-13"/>
</a>
</g>
</g>
<!-- Node2&#45;&gt;Node2 -->
<g id="edge2_Node000002_Node000002" class="edge">
<title>Node2&#45;&gt;Node2</title>
<g id="a_edge2_Node000002_Node000002"><a xlink:title=" ">
<path fill="none" stroke="#63b8ff" d="M180.65,-19.08C170.76,-27.73 177.54,-37 201,-37 216.03,-37 224.21,-33.2 225.55,-28.19"/>
<polygon fill="#63b8ff" stroke="#63b8ff" points="228.72,-26.69 221.35,-19.08 222.36,-29.63 228.72,-26.69"/>
</a>
</g>
</g>
</g>
</svg>
