<?xml version="1.0" encoding="UTF-8" standalone="no"?>
<!DOCTYPE svg PUBLIC "-//W3C//DTD SVG 1.1//EN"
 "http://www.w3.org/Graphics/SVG/1.1/DTD/svg11.dtd">
<!-- Generated by graphviz version 2.43.0 (0)
 -->
<!-- Title: generate_swap Pages: 1 -->
<svg width="177pt" height="45pt"
 viewBox="0.00 0.00 177.00 45.00" xmlns="http://www.w3.org/2000/svg" xmlns:xlink="http://www.w3.org/1999/xlink">
<g id="graph0" class="graph" transform="scale(1 1) rotate(0) translate(4 41)">
<title>generate_swap</title>
<!-- Node1 -->
<g id="Node000001" class="node">
<title>Node1</title>
<g id="a_Node000001"><a xlink:title=" ">
<polygon fill="#999999" stroke="#666666" points="91,-19 0,-19 0,0 91,0 91,-19"/>
<text text-anchor="middle" x="45.5" y="-7" font-family="Helvetica,sans-Serif" font-size="10.00">generate_swap</text>
</a>
</g>
</g>
<!-- Node1&#45;&gt;Node1 -->
<g id="edge1_Node000001_Node000001" class="edge">
<title>Node1&#45;&gt;Node1</title>
<g id="a_edge1_Node000001_Node000001"><a xlink:title=" ">
<path fill="none" stroke="#63b8ff" d="M29.78,-19.08C22.13,-27.73 27.37,-37 45.5,-37 56.55,-37 62.81,-33.56 64.28,-28.91"/>
<polygon fill="#63b8ff" stroke="#63b8ff" points="67.54,-27.59 61.22,-19.08 60.85,-29.67 67.54,-27.59"/>
</a>
</g>
</g>
<!-- Node2 -->
<g id="Node000002" class="node">
<title>Node2</title>
<g id="a_Node000002"><a xlink:href="recursive__swap_8c.html#a4b9708d87be7a409eff20e5e7e8b43c8" target="_top" xlink:title=" ">
<polygon fill="white" stroke="#666666" points="169,-19 127,-19 127,0 169,0 169,-19"/>
<text text-anchor="middle" x="148" y="-7" font-family="Helvetica,sans-Serif" font-size="10.00">swap</text>
</a>
</g>
</g>
<!-- Node1&#45;&gt;Node2 -->
<g id="edge2_Node000001_Node000002" class="edge">
<title>Node1&#45;&gt;Node2</title>
<g id="a_edge2_Node000001_Node000002"><a xlink:title=" ">
<path fill="none" stroke="#63b8ff" d="M91.17,-9.5C99.84,-9.5 108.74,-9.5 116.81,-9.5"/>
<polygon fill="#63b8ff" stroke="#63b8ff" points="116.86,-13 126.86,-9.5 116.86,-6 116.86,-13"/>
</a>
</g>
</g>
</g>
</svg>
